<svg width="89" height="29" viewBox="0 0 89 29" fill="none" xmlns="http://www.w3.org/2000/svg">
<path d="M1.41809 13.9015L18.3336 28.3208L33.9073 13.9015L30.6583 2.82139L23.7014 1L18.3336 7.8302L12.2949 1L5.47924 2.82139L1.41809 13.9015Z" stroke="white"/>
<path d="M45.878 24.24C44.694 24.24 43.534 24.072 42.398 23.736C41.278 23.384 40.334 22.904 39.566 22.296L40.91 19.872C41.518 20.368 42.254 20.768 43.118 21.072C43.982 21.376 44.886 21.528 45.83 21.528C46.95 21.528 47.822 21.304 48.446 20.856C49.07 20.392 49.382 19.768 49.382 18.984C49.382 18.216 49.094 17.608 48.518 17.16C47.942 16.712 47.014 16.488 45.734 16.488H44.198V14.352L48.998 8.64L49.406 9.816H40.382V7.2H51.83V9.288L47.03 15L45.398 14.04H46.334C48.398 14.04 49.942 14.504 50.966 15.432C52.006 16.344 52.526 17.52 52.526 18.96C52.526 19.904 52.286 20.776 51.806 21.576C51.326 22.376 50.59 23.024 49.598 23.52C48.622 24 47.382 24.24 45.878 24.24ZM61.5748 24.24C60.2468 24.24 59.0468 23.904 57.9748 23.232C56.9188 22.56 56.0868 21.584 55.4788 20.304C54.8708 19.008 54.5668 17.44 54.5668 15.6C54.5668 13.76 54.8708 12.2 55.4788 10.92C56.0868 9.624 56.9188 8.64 57.9748 7.968C59.0468 7.296 60.2468 6.96 61.5748 6.96C62.9188 6.96 64.1188 7.296 65.1748 7.968C66.2308 8.64 67.0628 9.624 67.6708 10.92C68.2948 12.2 68.6068 13.76 68.6068 15.6C68.6068 17.44 68.2948 19.008 67.6708 20.304C67.0628 21.584 66.2308 22.56 65.1748 23.232C64.1188 23.904 62.9188 24.24 61.5748 24.24ZM61.5748 21.528C62.3588 21.528 63.0388 21.32 63.6148 20.904C64.1908 20.472 64.6388 19.816 64.9588 18.936C65.2948 18.056 65.4628 16.944 65.4628 15.6C65.4628 14.24 65.2948 13.128 64.9588 12.264C64.6388 11.384 64.1908 10.736 63.6148 10.32C63.0388 9.888 62.3588 9.672 61.5748 9.672C60.8228 9.672 60.1508 9.888 59.5588 10.32C58.9828 10.736 58.5268 11.384 58.1908 12.264C57.8708 13.128 57.7108 14.24 57.7108 15.6C57.7108 16.944 57.8708 18.056 58.1908 18.936C58.5268 19.816 58.9828 20.472 59.5588 20.904C60.1508 21.32 60.8228 21.528 61.5748 21.528ZM74.6992 20.04L74.5312 16.344L83.3392 7.2H86.8432L79.5232 14.976L77.7952 16.872L74.6992 20.04ZM71.9152 24V7.2H75.0352V24H71.9152ZM83.6272 24L77.1952 16.344L79.2592 14.064L87.2752 24H83.6272Z" fill="white"/>
</svg>
