<svg width="89" height="29" viewBox="0 0 89 29" fill="none" xmlns="http://www.w3.org/2000/svg">
<path d="M1.41809 13.9015L18.3336 28.3208L33.9073 13.9015L30.6583 2.82139L23.7014 1L18.3336 7.8302L12.2949 1L5.47924 2.82139L1.41809 13.9015Z" stroke="white"/>
<path d="M46.166 24.24C44.982 24.24 43.822 24.072 42.686 23.736C41.566 23.384 40.622 22.904 39.854 22.296L41.174 19.872C41.782 20.368 42.518 20.768 43.382 21.072C44.262 21.376 45.174 21.528 46.118 21.528C47.222 21.528 48.086 21.296 48.71 20.832C49.35 20.368 49.67 19.744 49.67 18.96C49.67 18.432 49.534 17.968 49.262 17.568C49.006 17.168 48.542 16.864 47.87 16.656C47.214 16.448 46.31 16.344 45.158 16.344H41.102L41.966 7.2H51.83V9.816H43.118L44.75 8.328L44.102 15.168L42.47 13.704H45.854C47.518 13.704 48.854 13.928 49.862 14.376C50.886 14.808 51.63 15.416 52.094 16.2C52.574 16.968 52.814 17.848 52.814 18.84C52.814 19.816 52.574 20.712 52.094 21.528C51.614 22.344 50.878 23 49.886 23.496C48.91 23.992 47.67 24.24 46.166 24.24ZM61.6216 24.24C60.2936 24.24 59.0936 23.904 58.0216 23.232C56.9656 22.56 56.1336 21.584 55.5256 20.304C54.9176 19.008 54.6136 17.44 54.6136 15.6C54.6136 13.76 54.9176 12.2 55.5256 10.92C56.1336 9.624 56.9656 8.64 58.0216 7.968C59.0936 7.296 60.2936 6.96 61.6216 6.96C62.9656 6.96 64.1656 7.296 65.2216 7.968C66.2776 8.64 67.1096 9.624 67.7176 10.92C68.3416 12.2 68.6536 13.76 68.6536 15.6C68.6536 17.44 68.3416 19.008 67.7176 20.304C67.1096 21.584 66.2776 22.56 65.2216 23.232C64.1656 23.904 62.9656 24.24 61.6216 24.24ZM61.6216 21.528C62.4056 21.528 63.0856 21.32 63.6616 20.904C64.2376 20.472 64.6856 19.816 65.0056 18.936C65.3416 18.056 65.5096 16.944 65.5096 15.6C65.5096 14.24 65.3416 13.128 65.0056 12.264C64.6856 11.384 64.2376 10.736 63.6616 10.32C63.0856 9.888 62.4056 9.672 61.6216 9.672C60.8696 9.672 60.1976 9.888 59.6056 10.32C59.0296 10.736 58.5736 11.384 58.2376 12.264C57.9176 13.128 57.7576 14.24 57.7576 15.6C57.7576 16.944 57.9176 18.056 58.2376 18.936C58.5736 19.816 59.0296 20.472 59.6056 20.904C60.1976 21.32 60.8696 21.528 61.6216 21.528ZM74.7461 20.04L74.5781 16.344L83.3861 7.2H86.8901L79.5701 14.976L77.8421 16.872L74.7461 20.04ZM71.9621 24V7.2H75.0821V24H71.9621ZM83.6741 24L77.2421 16.344L79.3061 14.064L87.3221 24H83.6741Z" fill="white"/>
</svg>
