<svg width="89" height="29" viewBox="0 0 89 29" fill="none" xmlns="http://www.w3.org/2000/svg">
<path d="M1.41809 13.9015L18.3336 28.3208L33.9073 13.9015L30.6583 2.82139L23.7014 1L18.3336 7.8302L12.2949 1L5.47924 2.82139L1.41809 13.9015Z" stroke="white"/>
<path d="M46.262 6.96C47.798 6.96 49.102 7.288 50.174 7.944C51.262 8.584 52.094 9.52 52.67 10.752C53.246 11.984 53.534 13.504 53.534 15.312C53.534 17.232 53.182 18.856 52.478 20.184C51.79 21.512 50.83 22.52 49.598 23.208C48.366 23.896 46.934 24.24 45.302 24.24C44.454 24.24 43.646 24.152 42.878 23.976C42.11 23.8 41.446 23.528 40.886 23.16L42.038 20.808C42.502 21.112 43.006 21.328 43.55 21.456C44.094 21.568 44.654 21.624 45.23 21.624C46.814 21.624 48.07 21.136 48.998 20.16C49.926 19.184 50.39 17.744 50.39 15.84C50.39 15.536 50.382 15.184 50.366 14.784C50.35 14.368 50.294 13.952 50.198 13.536L51.158 14.592C50.886 15.248 50.494 15.8 49.982 16.248C49.47 16.68 48.87 17.008 48.182 17.232C47.494 17.456 46.734 17.568 45.902 17.568C44.814 17.568 43.83 17.36 42.95 16.944C42.086 16.512 41.398 15.912 40.886 15.144C40.374 14.36 40.118 13.448 40.118 12.408C40.118 11.288 40.39 10.328 40.934 9.528C41.478 8.712 42.214 8.08 43.142 7.632C44.086 7.184 45.126 6.96 46.262 6.96ZM46.43 9.408C45.79 9.408 45.222 9.528 44.726 9.768C44.23 9.992 43.838 10.32 43.55 10.752C43.278 11.168 43.142 11.672 43.142 12.264C43.142 13.144 43.446 13.84 44.054 14.352C44.662 14.864 45.478 15.12 46.502 15.12C47.174 15.12 47.766 15 48.278 14.76C48.79 14.504 49.19 14.16 49.478 13.728C49.766 13.28 49.91 12.784 49.91 12.24C49.91 11.712 49.774 11.24 49.502 10.824C49.23 10.392 48.838 10.048 48.326 9.792C47.814 9.536 47.182 9.408 46.43 9.408ZM62.6529 24.24C61.3249 24.24 60.1249 23.904 59.0529 23.232C57.9969 22.56 57.1649 21.584 56.5569 20.304C55.9489 19.008 55.6449 17.44 55.6449 15.6C55.6449 13.76 55.9489 12.2 56.5569 10.92C57.1649 9.624 57.9969 8.64 59.0529 7.968C60.1249 7.296 61.3249 6.96 62.6529 6.96C63.9969 6.96 65.1969 7.296 66.2529 7.968C67.3089 8.64 68.1409 9.624 68.7489 10.92C69.3729 12.2 69.6849 13.76 69.6849 15.6C69.6849 17.44 69.3729 19.008 68.7489 20.304C68.1409 21.584 67.3089 22.56 66.2529 23.232C65.1969 23.904 63.9969 24.24 62.6529 24.24ZM62.6529 21.528C63.4369 21.528 64.1169 21.32 64.6929 20.904C65.2689 20.472 65.7169 19.816 66.0369 18.936C66.3729 18.056 66.5409 16.944 66.5409 15.6C66.5409 14.24 66.3729 13.128 66.0369 12.264C65.7169 11.384 65.2689 10.736 64.6929 10.32C64.1169 9.888 63.4369 9.672 62.6529 9.672C61.9009 9.672 61.2289 9.888 60.6369 10.32C60.0609 10.736 59.6049 11.384 59.2689 12.264C58.9489 13.128 58.7889 14.24 58.7889 15.6C58.7889 16.944 58.9489 18.056 59.2689 18.936C59.6049 19.816 60.0609 20.472 60.6369 20.904C61.2289 21.32 61.9009 21.528 62.6529 21.528ZM75.7773 20.04L75.6093 16.344L84.4173 7.2H87.9213L80.6013 14.976L78.8733 16.872L75.7773 20.04ZM72.9933 24V7.2H76.1133V24H72.9933ZM84.7053 24L78.2733 16.344L80.3373 14.064L88.3533 24H84.7053Z" fill="white"/>
</svg>
