<svg width="89" height="29" viewBox="0 0 89 29" fill="none" xmlns="http://www.w3.org/2000/svg">
<path d="M1.41809 13.9015L18.3336 28.3208L33.9073 13.9015L30.6583 2.82139L23.7014 1L18.3336 7.8302L12.2949 1L5.47924 2.82139L1.41809 13.9015Z" stroke="white"/>
<path d="M40.382 24V21.912L47.054 15.576C47.614 15.048 48.03 14.584 48.302 14.184C48.574 13.784 48.75 13.416 48.83 13.08C48.926 12.728 48.974 12.4 48.974 12.096C48.974 11.328 48.71 10.736 48.182 10.32C47.654 9.888 46.878 9.672 45.854 9.672C45.038 9.672 44.294 9.816 43.622 10.104C42.966 10.392 42.398 10.832 41.918 11.424L39.734 9.744C40.39 8.864 41.27 8.184 42.374 7.704C43.494 7.208 44.742 6.96 46.118 6.96C47.334 6.96 48.39 7.16 49.286 7.56C50.198 7.944 50.894 8.496 51.374 9.216C51.87 9.936 52.118 10.792 52.118 11.784C52.118 12.328 52.046 12.872 51.902 13.416C51.758 13.944 51.486 14.504 51.086 15.096C50.686 15.688 50.102 16.352 49.334 17.088L43.598 22.536L42.95 21.36H52.766V24H40.382ZM61.5747 24.24C60.2467 24.24 59.0467 23.904 57.9747 23.232C56.9187 22.56 56.0867 21.584 55.4787 20.304C54.8707 19.008 54.5667 17.44 54.5667 15.6C54.5667 13.76 54.8707 12.2 55.4787 10.92C56.0867 9.624 56.9187 8.64 57.9747 7.968C59.0467 7.296 60.2467 6.96 61.5747 6.96C62.9187 6.96 64.1187 7.296 65.1747 7.968C66.2307 8.64 67.0627 9.624 67.6707 10.92C68.2947 12.2 68.6067 13.76 68.6067 15.6C68.6067 17.44 68.2947 19.008 67.6707 20.304C67.0627 21.584 66.2307 22.56 65.1747 23.232C64.1187 23.904 62.9187 24.24 61.5747 24.24ZM61.5747 21.528C62.3587 21.528 63.0387 21.32 63.6147 20.904C64.1907 20.472 64.6387 19.816 64.9587 18.936C65.2947 18.056 65.4627 16.944 65.4627 15.6C65.4627 14.24 65.2947 13.128 64.9587 12.264C64.6387 11.384 64.1907 10.736 63.6147 10.32C63.0387 9.888 62.3587 9.672 61.5747 9.672C60.8227 9.672 60.1507 9.888 59.5587 10.32C58.9827 10.736 58.5267 11.384 58.1907 12.264C57.8707 13.128 57.7107 14.24 57.7107 15.6C57.7107 16.944 57.8707 18.056 58.1907 18.936C58.5267 19.816 58.9827 20.472 59.5587 20.904C60.1507 21.32 60.8227 21.528 61.5747 21.528ZM74.6992 20.04L74.5312 16.344L83.3392 7.2H86.8432L79.5232 14.976L77.7952 16.872L74.6992 20.04ZM71.9152 24V7.2H75.0352V24H71.9152ZM83.6272 24L77.1952 16.344L79.2592 14.064L87.2752 24H83.6272Z" fill="white"/>
</svg>
